<?xml version="1.0" encoding="iso-8859-1"?>
<!-- Generator: Adobe Illustrator 16.0.0, SVG Export Plug-In . SVG Version: 6.00 Build 0)  -->
<!DOCTYPE svg PUBLIC "-//W3C//DTD SVG 1.1//EN" "http://www.w3.org/Graphics/SVG/1.1/DTD/svg11.dtd">
<svg version="1.1" id="Capa_1" xmlns="http://www.w3.org/2000/svg" xmlns:xlink="http://www.w3.org/1999/xlink" x="0px" y="0px"
	 width="456.721px" height="456.721px" viewBox="0 0 456.721 456.721" style="enable-background:new 0 0 456.721 456.721;"
	 xml:space="preserve">
<g>
	<g id="Layer_8_19_">
		<path d="M117.897,364.961c-2.757-6.041-4.137-11.032-4.137-14.972c0-5.078,1.641-9.181,4.927-12.268
			c3.284-3.114,7.374-4.663,12.276-4.663c2.454,0,4.812,0.723,7.095,2.167c2.279,1.446,3.764,3.165,4.465,5.188
			c4.556,12.17,9.438,21.21,14.642,27.118c5.206,5.91,12.542,8.865,21.999,8.865c5.428,0,10.657-1.335,15.695-4.005
			c5.036-2.671,9.195-6.632,12.478-11.885c3.283-5.252,4.924-11.339,4.924-18.255c0-10.244-2.802-18.276-8.405-24.099
			s-13.398-8.744-23.376-8.744c-1.753,0-4.465,0.177-8.143,0.536c-3.674,0.345-6.04,0.524-7.094,0.524
			c-4.812,0-8.534-1.201-11.16-3.62c-2.628-2.409-3.938-5.747-3.938-10.048c0-4.203,1.575-7.583,4.73-10.168
			c3.154-2.583,7.833-3.872,14.052-3.872h5.384c8.059,0,14.997-2.366,20.815-7.093c5.822-4.729,8.737-11.524,8.737-20.356
			c0-6.742-2.32-12.542-6.958-17.401c-4.639-4.858-10.9-7.288-18.782-7.288c-5.342,0-9.74,0.744-13.197,2.227
			c-3.458,1.483-6.191,3.459-8.211,5.915c-2.015,2.457-3.915,5.604-5.715,9.461c-1.797,3.859-3.433,7.487-4.924,10.901
			c-0.873,1.833-2.454,3.282-4.728,4.328c-2.276,1.051-4.904,1.57-7.881,1.57c-3.502,0-6.717-1.421-9.654-4.269
			c-2.937-2.85-4.398-6.637-4.398-11.359c0-4.559,1.379-9.347,4.134-14.376c2.758-5.028,6.785-9.826,12.082-14.374
			c5.294-4.55,11.885-8.208,19.762-10.967c7.881-2.757,16.682-4.137,26.397-4.137c8.495,0,16.239,1.16,23.242,3.48
			c7.004,2.32,13.09,5.672,18.257,10.046c5.166,4.378,9.059,9.463,11.69,15.239c2.625,5.774,3.936,12,3.936,18.648
			c0,8.756-1.91,16.258-5.717,22.528c-3.812,6.266-9.26,12.367-16.354,18.326c6.833,3.671,12.585,7.874,17.27,12.607
			c4.692,4.729,8.218,9.954,10.58,15.693c2.364,5.734,3.546,11.93,3.546,18.578c0,7.967-1.587,15.674-4.782,23.113
			c-3.194,7.441-7.9,14.08-14.129,19.902c-6.219,5.822-13.592,10.38-22.125,13.657c-8.535,3.278-17.971,4.927-28.304,4.927
			c-10.507,0-19.918-1.882-28.234-5.649c-8.316-3.764-15.168-8.47-20.555-14.128C124.726,376.855,120.651,371.001,117.897,364.961z
			 M264.548,287.082c7.703,0,22.674-8.53,44.923-25.603v119.503c0,7.004,1.62,12.302,4.849,15.898
			c3.241,3.587,7.542,5.383,12.883,5.383c11.992,0,17.99-8.8,17.99-26.398V225.49c0-6.306-1.4-11.253-4.202-14.84
			c-2.802-3.584-6.523-5.384-11.163-5.384c-4.115,0-6.915,0.791-8.405,2.364c-1.499,1.576-4.684,5.78-9.585,12.608
			c-4.903,6.828-10.53,13.001-16.878,18.527c-6.356,5.511-14.829,10.769-25.411,15.754c-7.102,3.333-12.037,6.042-14.839,8.143
			c-2.802,2.102-4.205,5.385-4.205,9.85c0,3.858,1.424,7.245,4.271,10.173C257.618,285.616,260.882,287.082,264.548,287.082z
			 M426.18,66.219v100.097c0,0.298-0.122,0.566-0.145,0.854v260.102c0,16.223-13.209,29.449-29.448,29.449H59.993
			c-16.239,0-29.451-13.204-29.451-29.449V118.724c0-0.46,0.11-0.887,0.128-1.335V66.225c0-6.235,8.048-11.302,17.981-11.302h32.102
			V33.845C80.752,15.174,95.932,0,114.591,0c18.658,0,33.837,15.174,33.837,33.845v21.078h53.002V33.845
			C201.43,15.174,216.609,0,235.273,0c18.656,0,33.836,15.174,33.836,33.845v21.078h48.298V33.845
			C317.407,15.174,332.586,0,351.244,0c18.659,0,33.838,15.174,33.838,33.845v21.078h23.116
			C418.111,54.922,426.18,59.984,426.18,66.219z M334.226,54.922h34.009V33.845c0-9.382-7.623-17.013-16.999-17.013
			c-9.387,0-17.01,7.631-17.01,17.013V54.922z M218.253,54.922h34.002V33.845c0-9.382-7.616-17.013-17.004-17.013
			c-9.373,0-16.998,7.631-16.998,17.013V54.922z M97.562,54.922h34.022V33.845c0-9.382-7.625-17.013-17.007-17.013
			c-9.378,0-17.015,7.631-17.015,17.013V54.922z M400.778,177.629H55.767v249.646c0,2.322,1.894,4.203,4.214,4.203h336.583
			c2.32,0,4.215-1.881,4.215-4.203V177.629z"/>
	</g>
</g>
<g>
</g>
<g>
</g>
<g>
</g>
<g>
</g>
<g>
</g>
<g>
</g>
<g>
</g>
<g>
</g>
<g>
</g>
<g>
</g>
<g>
</g>
<g>
</g>
<g>
</g>
<g>
</g>
<g>
</g>
</svg>
